<?xml version="1.0" standalone="no"?>
<!DOCTYPE svg PUBLIC "-//W3C//DTD SVG 20010904//EN"
 "http://www.w3.org/TR/2001/REC-SVG-20010904/DTD/svg10.dtd">
<svg version="1.0" xmlns="http://www.w3.org/2000/svg"
 width="225.000000pt" height="225.000000pt" viewBox="0 0 225.000000 225.000000"
 preserveAspectRatio="xMidYMid meet">
<metadata>
Created by potrace 1.15, written by Peter Selinger 2001-2017
</metadata>
<g transform="translate(0.000000,225.000000) scale(0.100000,-0.100000)"
fill="#000000" stroke="none">
<path d="M985 2240 c-452 -71 -792 -445 -812 -895 -7 -145 6 -236 51 -368 61
-179 190 -353 336 -456 l66 -46 -19 -33 c-17 -29 -18 -39 -9 -69 10 -33 9 -38
-19 -64 -16 -15 -36 -43 -44 -63 -13 -30 -20 -36 -46 -36 -47 0 -89 -47 -89
-100 0 -50 22 -85 62 -99 40 -14 1285 -15 1321 -2 72 28 92 118 38 172 -20 19
-40 29 -60 29 -26 0 -33 6 -46 36 -8 20 -28 48 -45 64 -27 25 -29 31 -19 59 9
26 8 38 -8 70 l-19 38 45 29 c71 44 212 191 263 274 168 271 193 594 68 893
-110 265 -370 482 -662 552 -79 19 -273 27 -353 15z m290 -75 c172 -30 319
-104 447 -224 129 -121 204 -241 254 -408 24 -77 27 -106 28 -238 1 -128 -3
-162 -22 -228 -68 -237 -210 -423 -413 -540 l-46 -27 -399 0 -399 0 -65 38
c-93 53 -244 208 -299 305 -221 393 -133 866 213 1141 202 160 451 224 701
181z m200 -1770 l0 -30 -260 -5 -260 -5 0 -30 0 -30 312 -5 c295 -5 313 -6
339 -26 15 -11 30 -26 32 -32 3 -9 -119 -12 -517 -12 -505 0 -521 1 -510 19
23 35 53 45 159 50 l105 6 0 30 0 30 -80 3 c-110 3 -125 7 -125 36 0 14 6 27
13 29 6 3 188 5 402 4 l390 -2 0 -30z m197 -273 c11 -43 25 -42 -598 -42 -522
0 -595 2 -600 15 -4 8 -1 22 6 30 11 13 92 15 600 15 551 0 588 -1 592 -18z"/>
<path d="M1017 2099 c-92 -12 -206 -51 -297 -102 -90 -50 -239 -194 -289 -279
-92 -159 -142 -376 -87 -386 28 -6 37 10 51 90 49 285 278 527 563 594 88 21
248 22 334 1 235 -57 432 -228 524 -455 13 -33 31 -104 41 -158 45 -267 -68
-540 -291 -705 -104 -76 -106 -78 -106 -89 0 -18 31 -39 48 -33 40 15 142 92
202 154 271 278 302 713 75 1034 -130 183 -344 309 -570 335 -100 11 -102 11
-198 -1z"/>
<path d="M1010 1769 c-171 -46 -302 -170 -352 -332 -17 -57 -20 -87 -16 -171
4 -89 9 -112 37 -171 122 -263 415 -364 672 -235 113 58 212 180 245 304 20
76 18 202 -6 277 -47 153 -185 283 -344 325 -58 16 -183 17 -236 3z m80 -249
l0 -190 -191 0 -192 0 7 43 c22 136 142 273 279 316 105 34 97 48 97 -169z
m205 150 c113 -53 114 -42 -10 -169 -59 -61 -112 -111 -117 -111 -4 0 -8 72
-8 160 l0 161 38 -7 c20 -3 64 -18 97 -34z m178 -149 c26 -39 67 -147 67 -176
0 -13 -23 -15 -162 -15 l-163 0 115 115 c63 63 115 115 116 115 1 0 13 -18 27
-39z m-225 -404 c161 -161 158 -149 56 -200 -200 -100 -450 -15 -549 186 -19
40 -38 91 -41 115 l-7 42 199 0 199 0 143 -143z m182 102 c0 -34 -19 -120 -29
-131 -4 -4 -45 30 -91 77 l-85 85 103 0 102 0 0 -31z"/>
<path d="M333 1253 c-34 -13 3 -198 62 -317 50 -100 128 -200 207 -265 112
-91 167 -114 182 -75 9 24 -2 38 -56 69 -75 44 -188 159 -237 242 -50 84 -86
181 -100 272 -12 71 -25 88 -58 74z"/>
</g>
</svg>
